# xmcd
#
# Track frame offsets:
#	150
#	16458
#	31226
#	51501
#	71686
#	91875
#	109321
#	129910
#	153336
#	171707
#	189102
#	206460
#	226774
#	246068
#	262552
#	277191
#	301459
#	321918
#
# Disc length: 4653
#
# Revision: 2
# Processed by: cddbd v1.5.1PL0 Copyright (c) Steve Scherf et al.
# Submitted via: Audion 2.6.0 (http://www.panic.com/audion/)
# Normalized: r0:TDELIM( - );r1:TSWAP
#
DISCID=f4122b12
DTITLE=Various Artist - JAZMIN'S
DYEAR=1900
DGENRE=
TTITLE0=MICHELLE BRANCH - All You Wanted
TTITLE1=ASHANTE - Foolish
TTITLE2=AVANT - Making Good Love
TTITLE3=FAT JOE feat. ASHANTE - What's Luv
TTITLE4=FAITH EVANS - I Love You
TTITLE5=LUDACRIS - Saturday (Oooh! Oooh!)
TTITLE6=PDIDDY feat. USHER - I Need A Girl
TTITLE7=USHER  feat.  LUDACRIS - U Don't Have To Call
TTITLE8=AALIYAH  and  TIMBERLAND - We Need a Resolution
TTITLE9=AALIYAH - More Than A Woman
TTITLE10=TRICK DADDY  feat.  SNS EXPRESS - Take It To Da House
TTITLE11=TLC - Creep
TTITLE12=MASTER P - Ooohhhwee
TTITLE13=DJ QUICK  feat.  AMG - Trouble
TTITLE14=B2K - Uh Huh
TTITLE15=B2K - Gots Ta Be
TTITLE16=AALIYAH - One In A Million
TTITLE17=PROYECTO UNO - Dime Si Son Latinos
EXTD=
EXTT0=
EXTT1=
EXTT2=
EXTT3=
EXTT4=
EXTT5=
EXTT6=
EXTT7=
EXTT8=
EXTT9=
EXTT10=
EXTT11=
EXTT12=
EXTT13=
EXTT14=
EXTT15=
EXTT16=
EXTT17=
PLAYORDER=
